<?xml version="1.0" standalone="no"?>
<!DOCTYPE svg PUBLIC "-//W3C//DTD SVG 1.1//EN" "http://www.w3.org/Graphics/SVG/1.1/DTD/svg11.dtd" >
<svg xmlns="http://www.w3.org/2000/svg">
<metadata>
Created by FontForge 20120731 at Mon Jul 25 15:12:57 2016
 By admin
</metadata>
<defs>
<font id="iconfont" horiz-adv-x="1024" >
  <font-face 
    font-family="iconfont"
    font-weight="500"
    font-stretch="normal"
    units-per-em="1024"
    panose-1="2 0 6 3 0 0 0 0 0 0"
    ascent="896"
    descent="-128"
    x-height="792"
    bbox="2 -105 1023 872"
    underline-thickness="50"
    underline-position="-100"
    unicode-range="U+0078-E65F"
  />
<missing-glyph horiz-adv-x="374" 
d="M34 0v682h272v-682h-272zM68 34h204v614h-204v-614z" />
    <glyph glyph-name=".notdef" horiz-adv-x="374" 
d="M34 0v682h272v-682h-272zM68 34h204v614h-204v-614z" />
    <glyph glyph-name=".null" horiz-adv-x="0" 
 />
    <glyph glyph-name="nonmarkingreturn" horiz-adv-x="341" 
 />
    <glyph glyph-name="x" unicode="x" horiz-adv-x="1001" 
d="M281 543q-27 -1 -53 -1h-83q-18 0 -36.5 -6t-32.5 -18.5t-23 -32t-9 -45.5v-76h912v41q0 16 -0.5 30t-0.5 18q0 13 -5 29t-17 29.5t-31.5 22.5t-49.5 9h-133v-97h-438v97zM955 310v-52q0 -23 0.5 -52t0.5 -58t-10.5 -47.5t-26 -30t-33 -16t-31.5 -4.5q-14 -1 -29.5 -0.5
t-29.5 0.5h-32l-45 128h-439l-44 -128h-29h-34q-20 0 -45 1q-25 0 -41 9.5t-25.5 23t-13.5 29.5t-4 30v167h911zM163 247q-12 0 -21 -8.5t-9 -21.5t9 -21.5t21 -8.5q13 0 22 8.5t9 21.5t-9 21.5t-22 8.5zM316 123q-8 -26 -14 -48q-5 -19 -10.5 -37t-7.5 -25t-3 -15t1 -14.5
t9.5 -10.5t21.5 -4h37h67h81h80h64h36q23 0 34 12t2 38q-5 13 -9.5 30.5t-9.5 34.5q-5 19 -11 39h-368zM336 498v228q0 11 2.5 23t10 21.5t20.5 15.5t34 6h188q31 0 51.5 -14.5t20.5 -52.5v-227h-327z" />
    <glyph glyph-name="uniE600" unicode="&#xe600;" 
d="M130 1h577v580h-577v-580zM713 -66h-590q-25 0 -43 18t-18 43v592q0 25 18 43t43 18h590q25 0 43 -18t18 -43v-592q0 -25 -18 -43t-43 -18zM901 120h-161v67h154v580h-577v-153h-67v159q0 25 18 43t43 18h590q25 0 43 -18t18 -43v-592q0 -25 -18 -43t-43 -18z" />
    <glyph glyph-name="uniE601" unicode="&#xe601;" 
d="M513 855q97 0 183 -37t150 -101t101 -151q37 -86 37 -183q0 -98 -37 -183q-37 -87 -101 -150q-65 -65 -150 -101q-86 -37 -183 -37q-99 0 -185 37t-150 100.5t-101 150.5q-37 85 -37 183q0 97 37 183t101 150.5t150.5 101.5t184.5 37zM522 133q20 0 35 14t15 34
q0 21 -14.5 35.5t-35.5 14.5q-22 0 -36.5 -14.5t-14.5 -35.5q0 -20 14 -34q15 -14 37 -14zM570 330q0 10 13 23q15 14 31 32q17 19 31 45t14 61q0 23 -9 48q-9 26 -29.5 47t-52 34.5t-76.5 13.5q-53 0 -84 -18q-31 -17 -47 -42.5t-21 -53t-5 -45.5t15 -25t32.5 -6t32.5 10
t15 24q0 10 1 21q1 12 7.5 22.5t19.5 17.5t35 7q35 0 56 -19t21 -44q0 -21 -15 -41t-32 -36q-16 -16 -32 -29q-14 -13 -14 -20v-53q0 -7 14.5 -10t31.5 -3t32 4t15 12v23z" />
    <glyph glyph-name="uniE602" unicode="&#xe602;" 
d="M954 638q-4 -31 -26 -54l-350 -350q-27 -27 -65.5 -27t-65.5 27l-350 350q-22 22 -26 54q-1 -7 -1 -12v-479q0 -38 27 -65t65 -27h701q38 0 65 27t27 65v480q0 4 -1 11zM578 301l367 367q-12 23 -34 37t-48 14h-701q-26 0 -48 -14t-34 -37l367 -367q27 -27 65.5 -27
t65.5 27z" />
    <glyph glyph-name="uniE603" unicode="&#xe603;" 
d="M960 572q0 -8 -5 -13l-428 -519q-6 -7 -15 -7t-16 7l-427 519q-8 10 -2.5 21.5t17.5 11.5h856q8 0 14 -6t6 -14z" />
    <glyph glyph-name="uniE604" unicode="&#xe604;" horiz-adv-x="1025" 
d="M864 825l-8 13h-676l-8 -11q-49 -65 -81 -125.5t-44.5 -104.5t-14 -84.5t4.5 -65.5t16 -47q22 -46 63.5 -74t89.5 -28h5q95 4 161 73q59 -69 148 -69q91 0 150 73q89 -75 169 -75q68 0 116 57q24 29 32 70t3.5 81.5t-19.5 88t-30 83t-34.5 72.5t-28 50.5t-14.5 22.5v0z
M915 392q-32 -38 -76 -38q-30 0 -66 18t-54 32t-32 28v186q0 1 1 2q0 11 -8 19t-19 8t-18.5 -8t-7.5 -19h-1v-203q-42 -60 -114 -60q-33 0 -61 14.5t-39.5 26.5t-19.5 25v197q0 11 -7.5 19t-18.5 8t-19 -8t-8 -19v-196q-10 -13 -23.5 -26t-45.5 -29t-69 -17h-3
q-29 0 -59 18.5t-47 53.5q-10 22 -13.5 50.5t2.5 72.5t35.5 105.5t81.5 130.5h622q19 -31 37.5 -67t37.5 -84t29 -90.5t6.5 -83.5t-23.5 -66zM867 267q-12 0 -19.5 -8.5t-7.5 -19.5v-198q0 -23 -16 -39t-38 -16h-548q-22 0 -38 16t-16 39v198q0 11 -7.5 19.5t-18.5 8.5
t-19 -8t-8 -20v-204q0 -43 29.5 -74t72.5 -31h559q42 0 71.5 31t29.5 74v204q0 11 -7.5 19.5t-18.5 8.5z" />
    <glyph glyph-name="uniE605" unicode="&#xe605;" 
d="M207 810l659 -428l-659 -429v857z" />
    <glyph glyph-name="uniE606" unicode="&#xe606;" 
d="M806 831h-588q-64 0 -110 -44.5t-46 -106.5v-592q0 -62 46 -106.5t110 -44.5h588q64 0 110 44.5t46 106.5v592q0 62 -46 106.5t-110 44.5zM896 88q0 -35 -26.5 -60t-63.5 -25h-588q-37 0 -63.5 25t-26.5 60v592q0 35 26.5 60t63.5 25h588q37 0 63.5 -25t26.5 -60v-592z
M282 578h460v-388h-460v388z" />
    <glyph glyph-name="uniE607" unicode="&#xe607;" 
d="M173 11v754l581 -377zM851 119h-104v538h104v-538z" />
    <glyph glyph-name="uniE608" unicode="&#xe608;" 
d="M515 -12q-131 0 -237 79q-64 47 -104 114.5t-51 146t8 154.5t67 140q65 86 162.5 127t202.5 29t192 -77q113 -85 147 -223q3 -11 -3 -21t-17.5 -12.5t-21.5 3.5t-13 17q-29 118 -126 191q-74 55 -164.5 65.5t-174 -24.5t-138.5 -109q-85 -113 -65 -252q10 -68 44 -125.5
t89 -98.5q74 -55 164.5 -65.5t174 25t138.5 109.5q44 59 60 130q3 12 12.5 18t21 4t18 -12t4.5 -22q-19 -83 -70 -152q-48 -64 -115.5 -104t-146.5 -51q-29 -4 -58 -4z" />
    <glyph glyph-name="uniE609" unicode="&#xe609;" 
d="M260 83l582 582l-188 189l-583 -582l-12 -201zM59 -6h930v-56h-930v56z" />
    <glyph glyph-name="uniE60A" unicode="&#xe60a;" 
d="M901 481h-292l109 109q-85 86 -206 86t-206.5 -85.5t-85.5 -206.5t85.5 -206.5t206.5 -85.5t206 86l14 14l73 -64q-55 -63 -131 -98t-162 -35q-106 0 -195.5 52t-141.5 141.5t-52 195.5t52 195.5t141.5 141.5t195.5 52q79 0 150 -30t125 -84l114 114v-292v0z" />
    <glyph glyph-name="uniE60B" unicode="&#xe60b;" horiz-adv-x="1025" 
d="M872 -28l-772 772q-10 10 -10 24t10 24t24 10t24 -10l772 -772q10 -10 10 -24t-10 -24t-24 -10t-24 10zM920 744l-772 -772q-10 -10 -24 -10t-24 10t-10 24t10 24l772 772q10 10 24 10t24 -10t10 -24t-10 -24z" />
    <glyph glyph-name="uniE60C" unicode="&#xe60c;" 
d="M914 -105h-789q-37 0 -62.5 25.5t-25.5 61.5v789q0 36 25.5 62t62.5 26h526q12 0 20.5 -9t8.5 -21t-8.5 -20.5t-20.5 -8.5h-497q-24 0 -41.5 -17t-17.5 -41v-730q0 -25 17.5 -42t41.5 -17h730q25 0 42 17t17 42v525q0 12 8.5 20.5t20.5 8.5t20.5 -8.5t8.5 -20.5v-555
q0 -36 -25.5 -61.5t-61.5 -25.5zM436 282q-8 -9 -20 -9t-20.5 8.5t-8.5 20.5t8 21l525 528q9 8 21 8t20.5 -8.5t8.5 -20.5t-8 -21z" />
    <glyph glyph-name="uniE60D" unicode="&#xe60d;" 
d="M293 823q-10 -11 -10 -26.5t11 -26.5l362 -383l-361 -389q-10 -11 -10 -26.5t10.5 -26.5t25 -11t24.5 11l384 413q0 1 1 2v1h1q10 11 10 26.5t-11 26.5l-387 409q-10 11 -24.5 11t-25.5 -11z" />
    <glyph glyph-name="uniE60E" unicode="&#xe60e;" 
d="M614 130q-13 0 -22.5 9t-9.5 23v354q0 14 9.5 23t23 9t22.5 -9t9 -23v-354q0 -14 -9 -23t-23 -9zM421 130q-13 0 -22.5 9t-9.5 23v354q0 14 9.5 23t22.5 9t22.5 -9t9.5 -23v-354q0 -14 -9.5 -23t-22.5 -9zM937 677h-162v65q0 40 -28 68.5t-68 28.5h-322
q-40 0 -68.5 -28.5t-28.5 -68.5v-65h-161q-14 0 -23.5 -9t-9.5 -22.5t9.5 -23t23.5 -9.5h837q14 0 23.5 9.5t9.5 23t-9.5 22.5t-22.5 9zM324 742q0 13 9.5 22.5t22.5 9.5h323q14 0 23 -9.5t9 -22.5v-65h-387v65zM743 -64h-451q-40 0 -68.5 28.5t-28.5 68.5v484
q0 13 9.5 22.5t23 9.5t23 -9.5t9.5 -22.5v-484q0 -13 9.5 -22.5t22.5 -9.5h451q14 0 23 9.5t9 22.5v482q0 14 9.5 23.5t23 9.5t23 -9.5t9.5 -23.5v-482q0 -40 -28.5 -68.5t-68.5 -28.5z" />
    <glyph glyph-name="uniE60F" unicode="&#xe60f;" horiz-adv-x="1025" 
d="M287 639q19 1 31.5 13.5t12.5 31.5v42v0q0 5 0.5 13.5t0.5 15.5t-1 14q0 18 -12 31q-20 21 -48.5 10.5t-28.5 -40.5v-85q0 -19 13 -32.5t32 -13.5zM287 639zM737 639q19 1 32 13.5t13 31.5v13v15v14v21v22q0 18 -12 31q-21 21 -49 10q-28 -10 -28 -40v-85q0 -19 13 -32.5
t31 -13.5zM737 639zM892 723q-11 2 -24 3t-30 1h-25v-53q-1 -39 -34 -60.5t-69 -6.5q-22 9 -35 27.5t-13 42.5v49h-300v-12v-12v-12v-26q-6 -30 -29.5 -47.5t-53.5 -14.5q-29 2 -48 24t-20 51v48h-70q-4 0 -12 -2q-30 -9 -48.5 -32.5t-18.5 -54.5v-166v-425
q0 -39 26.5 -64.5t65.5 -25.5h714q42 0 68 26t26 67v420v168q0 33 -19.5 57.5t-50.5 29.5zM903 80q0 -13 -6 -24q-7 -13 -26 -13h-258h-457q-17 0 -26 8.5t-9 26.5v411h782v-53v-158v-198zM903 80zM363 246h118v-121h-118v121zM363 246zM183 246h118v-121h-118v121zM183 246
zM363 410h118v-121h-118v121zM363 410zM723 246h118v-120h-118v120zM723 246zM543 246h118v-120h-118v120zM543 246zM723 410h119v-120h-119v120zM723 410zM543 409h118v-120h-118v120zM543 409z" />
    <glyph glyph-name="uniE610" unicode="&#xe610;" 
d="M129 1h766v766h-766v-766zM901 -66h-778q-25 0 -43 18t-18 43v778q0 25 18 43t43 18h778q25 0 43 -18t18 -43v-778q0 -25 -18 -43t-43 -18z" />
    <glyph glyph-name="uniE611" unicode="&#xe611;" 
d="M517 841q-94 0 -179.5 -36.5t-147.5 -98.5t-98.5 -147.5t-36.5 -179.5t36.5 -179t98.5 -147t147.5 -98.5t179.5 -36.5t179 36.5t147 98.5t98.5 147t36.5 179t-36.5 179.5t-98.5 147.5t-147 98.5t-179 36.5zM709 296q18 -1 28.5 -13.5t11.5 -29.5q-2 -18 -12 -29
q-10 -13 -28 -14l-131 1v-72q-3 -58 -63 -58q-30 0 -47 14t-18 44v71h-132q-18 1 -28 15t-12 31q2 17 12 28t28 12h132v43l-132 1q-18 1 -28 13q-10 11 -12 29q2 17 12 28t28 12h98l-91 161q-7 9 -13 21q-6 13 -5 28q3 19 13.5 31t38.5 15q16 -1 29 -11t21 -22l104 -189
l114 191q8 11 21 20t29 11q10 0 19 -2q9 -3 15 -7q7 -5 11 -14t7 -23q0 -20 -14 -38l-106 -172h100q18 -1 28.5 -12t11.5 -28q-1 -17 -12 -29.5t-28 -14.5h-131v-42h131z" />
    <glyph glyph-name="uniE612" unicode="&#xe612;" 
d="M614 297v477h-204v-477h-207l309 -309l309 309h-207z" />
    <glyph glyph-name="uniE613" unicode="&#xe613;" 
d="M233 716q33 0 55.5 -22.5t22.5 -55t-22.5 -55t-55 -22.5t-55.5 22.5t-23 55t23 55t55 22.5zM416 396l-55 30l108 146q-68 -29 -112 -91q-3 -12 -12 -30q-54 41 -80 64q90 147 131 215q17 -7 54 -19.5t55 -19.5q-5 -12 -13.5 -34.5t-11.5 -29.5q53 26 113 41t119.5 16
t108 -12.5t81 -49.5t36.5 -91q12 -165 -10 -327q-5 -42 -17 -69.5t-31.5 -41t-40 -18.5t-50.5 -6h-155q-5 37 -5 50h96q51 4 74 29t24 86l5 166q2 34 0.5 68t-7 62t-24 49t-49.5 27q-43 6 -65 5t-65.5 -6t-66.5 -5q-9 -4 -36 -10l50 -43l-41 -41h256v-55h-151v-64h151v-46
h-151v-110q11 3 35 8.5t36 8.5q-7 13 -26 41q11 4 30.5 13.5t29.5 13.5q68 -48 55 -128q-9 -8 -27.5 -25.5t-27.5 -24.5q-4 9 -14.5 27t-15.5 27q-422 -164 -350 110h101q0 -54 10.5 -70.5t39.5 -18.5h5v128h-153v46h153v64h-30v9zM172 540q-37 -46 -55 -68q39 -23 65.5 -43
t46.5 -45t17 -53.5t-29 -57.5q-17 -20 -39.5 -39t-51 -41t-44.5 -35q21 -16 62 -48t62 -48q7 17 33 81.5t47 108.5q26 55 27 102t-33 93t-108 93z" />
    <glyph glyph-name="uniE614" unicode="&#xe614;" 
d="M82 632l222 161l-36 -561h-165l57 400h-78zM460 736l-35 -90q-10 -25 -28 -25q-5 0 -9 1v12q5 -2 8 -2q9 0 14 11l6 15l-31 78h16l20 -59l2 -7q1 4 2 7l21 59h14zM533 658h-14v45q0 23 -17 23q-9 0 -15 -6.5t-6 -17.5v-44h-14v115h14v-50q9 15 26 15q26 0 26 -32v-48z
M626 658h-14v13q-9 -15 -27 -15q-15 0 -23.5 10.5t-8.5 28.5q0 19 9.5 31t25.5 12t24 -13v48h14v-115zM612 704q0 9 -6.5 15.5t-15.5 6.5q-11 0 -17 -8t-6 -23q0 -13 6 -20.5t16 -7.5t16 8q7 7 7 18v11zM642 665q0 4 2.5 6.5t6.5 2.5t6.5 -2.5t2.5 -6.5t-2.5 -6.5t-6.5 -2.5
t-6.5 2.5t-2.5 6.5zM725 661q-9 -5 -22 -5q-17 0 -27 10.5t-10 28.5q0 19 11 31t30 12q10 0 18 -4v-14q-8 6 -18 6q-12 0 -19.5 -8t-7.5 -22q0 -13 7 -20.5t19 -7.5q10 0 19 6v-13zM743 696q0 19 10.5 30.5t29.5 11.5q17 0 27 -11t10 -30q0 -18 -10.5 -29.5t-28.5 -11.5
q-17 0 -27.5 11t-10.5 29zM757 696q0 -13 6.5 -21t18.5 -8t18 8t6 22t-6 21.5t-18 7.5t-18.5 -8t-6.5 -22zM941 658h-14v44q0 13 -4 18.5t-13 5.5q-7 0 -12.5 -7t-5.5 -17v-44h-14v46q0 22 -17 22q-8 0 -13.5 -6.5t-5.5 -17.5v-44h-13v78h13v-13h1q8 15 24 15q8 0 14 -4.5
t8 -11.5q9 16 26 16q26 0 26 -32v-48zM434.5 587q-48.5 0 -83.5 -34.5t-35 -83.5q0 -48 34.5 -79t84 -31t83.5 31t34 79q0 49 -34.5 83.5t-83 34.5zM434.5 395q-30.5 0 -52 21.5t-21.5 52t21.5 52t52 21.5t52 -21.5t21.5 -52t-21.5 -52t-52 -21.5zM439 269h-25v22h159v57
h-269v-57h54v-58h12h44h4h1h2q46 0 78 -28t32 -67t-32 -67t-78 -28h-45v-47h63q58 0 99 40t41 96.5t-41 96.5t-99 40zM941 502v49h-106v33h-58v-33h-60h-47v-48v-163l-28 22l-49 -49l27 -23l20 25l30 -47h47v234h60v-180q-32 -14 -51.5 -43t-19.5 -65q0 -49 34.5 -83t83 -34
t83 34t34.5 83q0 46 -30.5 79.5t-75.5 37.5v66h93v46h-93v59h106zM894 214q0 -29 -20.5 -50t-50 -21t-50 21t-20.5 50t20.5 50t50 21t50 -21t20.5 -50z" />
    <glyph glyph-name="uniE615" unicode="&#xe615;" 
d="M230 218.5q-92 91.5 -92 221t92 221.5t221.5 92t221 -92t91.5 -221.5t-91.5 -221t-221 -91.5t-221.5 91.5zM778 193q85 111 85 251q0 112 -55.5 207.5t-151 151t-207.5 55.5t-207.5 -55.5t-151 -151t-55.5 -207.5t55.5 -207.5t151 -151t207.5 -55.5q145 0 258 91
l196 -196q15 -15 35.5 -15t35.5 15t15 36t-15 35z" />
    <glyph glyph-name="uniE616" unicode="&#xe616;" 
d="M512 834q-91 0 -174.5 -36t-143.5 -96t-96 -143.5t-36 -174.5t36 -174.5t96 -143.5t143.5 -96t174.5 -36t174.5 36t143.5 96t96 143.5t36 174.5t-36 174.5t-96 143.5t-143.5 96t-174.5 36zM512 37q-94 0 -174 46.5t-126.5 126.5t-46.5 174t46.5 174t126.5 126.5t174 46.5
t174 -46.5t126.5 -126.5t46.5 -174t-46.5 -174t-126.5 -126.5t-174 -46.5zM512 37zM512 596q-88 0 -150 -62t-62 -150t62 -150t150 -62t150 62t62 150t-62 150t-150 62v0zM512 596z" />
    <glyph glyph-name="uniE617" unicode="&#xe617;" 
d="M962 384q0 -91 -36 -174.5t-96 -143.5t-143.5 -96t-174.5 -36t-174.5 36t-143.5 96t-96 143.5t-36 174.5t36 174.5t96 143.5t143.5 96t174.5 36t174.5 -36t143.5 -96t96 -143.5t36 -174.5v0zM512 731q-94 0 -174 -46.5t-126.5 -126.5t-46.5 -174t46.5 -174t126.5 -126.5
t174 -46.5t174 46.5t126.5 126.5t46.5 174t-46.5 174t-126.5 126.5t-174 46.5v0zM512 731z" />
    <glyph glyph-name="uniE618" unicode="&#xe618;" 
d="M512 861q-97 0 -185.5 -38t-152 -101.5t-101.5 -152t-38 -185.5t38 -185.5t101.5 -152t152 -101.5t185.5 -38t185.5 38t152 101.5t101.5 152t38 185.5t-38 185.5t-101.5 152t-152 101.5t-185.5 38zM441 604q0 29 20.5 50t50 21t50.5 -21t21 -50v-219q0 -29 -21 -49.5
t-50.5 -20.5t-50 20.5t-20.5 49.5v219zM513 93q-32 0 -56 23t-24 55t24 54.5t56 22.5q33 0 55.5 -22.5t22.5 -54.5t-22.5 -55t-55.5 -23z" />
    <glyph glyph-name="uniE619" unicode="&#xe619;" 
d="M95 609q0 -24 17 -40.5t41 -16.5t40.5 16.5t16.5 40.5t-16.5 41t-40.5 17t-41 -17t-17 -41zM172 230q25 -37 66 -58t90 -21q76 0 128 50t52 121t-52 121t-128 50q-50 0 -92 -22.5t-67 -59.5l-3 -3q-1 -1 -6.5 -3.5t-10.5 -3.5t-12.5 0.5t-13.5 7.5q-13 11 -13 27.5
t5 27.5t6 11q65 75 168 88v101q1 3 3.5 7.5t12.5 11.5t22 7t21.5 -6.5t13.5 -12.5l3 -7l1 -101q95 -12 156 -80t61 -161q0 -102 -73 -173t-182 -71q-64 0 -119.5 26t-92.5 71q-2 4 -4.5 11t-1 22t12.5 22q23 16 49 0zM456 609q0 -24 16.5 -40.5t40.5 -16.5t41 16.5t17 40.5
v0q0 24 -17 41t-41 17t-40.5 -17t-16.5 -41zM812 609q0 -24 16.5 -40.5t40.5 -16.5t41 16.5t17 40.5v0q0 24 -17 41t-41 17t-40.5 -17t-16.5 -41zM428 318q0 -15 -11 -26t-26 -11h-281q-15 0 -26 11t-11 26q0 16 11 27t26 11h281q15 0 26 -11t11 -27zM596 178
q46 -27 100 -27q77 0 129 50t52 121t-52 120.5t-129 49.5q-54 0 -100 -27l-42 63q48 28 104 35l-1 101q1 3 4 7.5t13 11.5t22 7t21.5 -6.5t12.5 -13.5l4 -6v-101q96 -12 156.5 -80t60.5 -161q0 -102 -73 -173t-182 -71q-75 0 -138 36zM634 356h125q16 0 27 -11t11 -27
q0 -15 -11 -26.5t-27 -11.5h-125v76z" />
    <glyph glyph-name="uniE61A" unicode="&#xe61a;" 
d="M246 732v-476q0 -53 -36.5 -94.5t-86.5 -41.5q-58 0 -77 1v-85q28 -4 77 -4q91 0 154.5 66t63.5 158v476h-95zM669 736h-225v-704h225q57 0 113 27t99.5 72.5t70 111.5t26.5 138q0 75 -26.5 141.5t-70 113t-99.5 73.5t-113 27zM682 122h-149v517h149q83 0 142.5 -76
t59.5 -181.5t-59.5 -182.5t-142.5 -77z" />
    <glyph glyph-name="uniE61B" unicode="&#xe61b;" 
d="M933 439l-85 84v120q0 32 -22.5 54.5t-54.5 22.5h-120l-84 85q-23 23 -55 23t-55 -23l-84 -85h-120q-32 0 -54.5 -22.5t-22.5 -54.5v-120l-85 -84q-23 -23 -23 -55t23 -55l85 -84v-120q0 -32 22.5 -54.5t54.5 -22.5h120l84 -85q23 -23 55 -23t55 23l85 85h119
q32 0 55 22.5t23 54.5v120l84 84q23 23 23 55t-23 55zM650.5 475q13.5 0 23 -9.5t9.5 -23t-9.5 -23.5t-23 -10t-23.5 10t-10 23.5t10 23t23.5 9.5zM373.5 475q13.5 0 23 -9.5t9.5 -23t-9.5 -23.5t-23 -10t-23.5 10t-10 23.5t10 23t23.5 9.5zM641 118h-257q-43 0 -72.5 30
t-29.5 72q0 41 28.5 71t69.5 31q6 49 43.5 82.5t88 33.5t88 -33.5t43.5 -82.5q41 -1 70.5 -30.5t29.5 -71.5t-30 -72t-72 -30zM592 322h-160q-13 0 -17.5 -12t10.5 -24l53 -40q2 -1 4.5 -3t11.5 -4.5t17.5 -2.5t17 2.5t12.5 4.5l4 3l53 40q15 12 10.5 24t-16.5 12z" />
    <glyph glyph-name="uniE61C" unicode="&#xe61c;" 
d="M743 376q-8 3 -11 4.5t-6 6.5t2 13q23 59 0 91q-24 32 -79 31.5t-126 -29.5q-24 -10 -23 5q0 2 1 5q23 74 -10 107q-38 38 -126.5 4t-174.5 -121q-66 -66 -101.5 -132.5t-35.5 -125.5q0 -73 57 -130t144 -85.5t184 -28.5q90 0 170 24t132.5 62.5t83 84t30.5 89.5
q0 48 -32.5 79.5t-78.5 45.5zM438.5 45q-114.5 -11 -200 34t-93 119.5t68 135.5t189.5 72.5t200 -33.5t93.5 -120t-68 -136t-190 -72zM908.5 654.5q-44.5 49.5 -106.5 69t-125 5.5q-14 -3 -22 -15t-5 -26.5t15.5 -22t26.5 -4.5q45 9 89 -5t75.5 -49t41 -81t-4.5 -88
q-5 -14 1.5 -27t20.5 -17.5t27 2.5t18 21q20 59 6.5 123.5t-58 114zM816 571q-22 24 -52 33.5t-61 2.5q-12 -2 -19 -12.5t-4 -23t13.5 -19t22.5 -4.5q33 7 55 -17.5t12 -56.5q-4 -12 2 -23.5t18 -15t23 2t15 17.5q10 29 3.5 60.5t-28.5 55.5zM454 330q-54 14 -108 -9.5
t-78 -71.5q-24 -49 -3 -96.5t75 -64.5q57 -18 115 6.5t81 76.5q23 51 -1.5 97.5t-80.5 61.5zM398 163.5q-11 -17.5 -31.5 -24t-37.5 1.5q-18 8 -22.5 25.5t6.5 35t31 24t38 -0.5q17 -8 22 -26t-6 -35.5zM447 226q-4 -7 -11.5 -10t-14.5 0t-9 9.5t2 13.5t11.5 9.5t14 0t9 -9
t-1.5 -13.5z" />
    <glyph glyph-name="uniE61D" unicode="&#xe61d;" 
d="M986 491q-2 7 -37 14.5t-82.5 13t-95 10.5t-80.5 7l-32 2q-118 297 -147 297q-13 0 -49.5 -74t-66.5 -148l-30 -75q-318 -22 -328 -47q-2 -4 3.5 -12.5t17 -21t26 -27t32.5 -31.5t35 -32.5t36.5 -32t33 -28.5t27.5 -24t18.5 -15.5t7.5 -6.5l-43 -199q-22 -119 -13 -126
q17 -13 291 152l2 2l147 -89q134 -77 146 -65q16 16 -44 278q0 1 -30 -2t-87 -6.5t-108 -4.5q-47 0 -102.5 1.5t-87.5 3.5l-32 2l273 203q-85 15 -149 21q-51 4 -129 8l-34 2q17 5 91 9.5t146 1.5q44 -2 94 -7t77 -10l28 -4l-273 -194q59 -10 109 -11q42 -2 94 -2t83.5 0.5
t31.5 1.5l-7 34l126 110q117 106 111 121z" />
    <glyph glyph-name="uniE61E" unicode="&#xe61e;" 
d="M676 533q13 0 31 -2q-21 99 -115 164.5t-215 65.5q-89 0 -164.5 -37t-119.5 -101t-44 -141q0 -129 131 -221l-33 -98l115 57q83 -16 115 -16q14 0 30 1q-10 35 -10 69q0 107 81 183t198 76zM500 622q18 0 29.5 -11.5t11.5 -30t-11.5 -29.5t-29.5 -11q-20 0 -35 11.5
t-15 29.5t15 29.5t35 11.5zM270 540q-19 0 -34 11.5t-15 29.5t15 29.5t34 11.5t30 -11.5t11 -30t-11 -29.5t-30 -11zM975 278q0 64 -38.5 119t-103 86.5t-136.5 31.5q-117 0 -198 -69.5t-81 -167.5q0 -99 81 -168.5t198 -69.5q32 0 98 16l90 -49l-25 82q115 86 115 189z
M606 319q-12 0 -22.5 10t-10.5 22.5t10.5 22.5t22.5 10q18 0 29.5 -10t11.5 -23t-11.5 -22.5t-29.5 -9.5zM786 319q-12 0 -22 10t-10 22.5t10 22.5t22 10q18 0 29.5 -10t11.5 -23t-11.5 -22.5t-29.5 -9.5z" />
    <glyph glyph-name="uniE61F" unicode="&#xe61f;" 
d="M512.5 765q-103.5 0 -191.5 -51t-139 -139t-51 -191.5t51 -191.5t139 -139t191.5 -51t191.5 51t139 139t51 191.5t-51 191.5t-139 139t-191.5 51zM680 268q10 -11 10 -26t-10.5 -25.5t-25.5 -10.5t-26 10l-116 116l-115 -116q-11 -10 -26 -10t-26 10.5t-11 25.5t11 26
l116 116l-116 115q-11 11 -11 26t11 25.5t26 10.5t26 -10l115 -116l116 116q11 10 26 10t25.5 -10.5t10.5 -25.5t-10 -26l-116 -115z" />
    <glyph glyph-name="uniE620" unicode="&#xe620;" 
d="M805 834h-586q-64 0 -110 -44.5t-46 -107.5v-596q0 -63 46 -107.5t110 -44.5h586q64 0 110 44.5t46 107.5v596q0 63 -46 107.5t-110 44.5zM894 86q0 -35 -26 -60.5t-63 -25.5h-586q-37 0 -63 25t-26 61v596q0 36 26 61t63 25h586q37 0 63 -25t26 -61v-596zM803 523
l-340 -340q-14 -14 -29 -8q-7 2 -13 8l-200 190q-8 8 -9.5 17.5t4.5 16.5l32 33q5 6 15 5t19 -9l159 -151l301 300q7 8 17 9t16 -5l33 -32q6 -6 4.5 -16t-9.5 -18z" />
    <glyph glyph-name="uniE621" unicode="&#xe621;" 
d="M98 113q-8 0 -14 -6t-5.5 -14.5t6 -14.5t14.5 -6q26 0 62 -12q74 -25 130 -87q6 -6 15 -6q8 0 14 5q6 6 6.5 14.5t-5.5 14.5q-28 31 -61.5 54t-59 33.5t-51.5 16.5t-35 7t-16 1v0zM98 113zM893 111q-3 -1 -11 0.5t-24 -1t-34.5 -5t-42.5 -11t-47 -19.5t-49 -30.5
t-49 -43.5q-6 -6 -5.5 -14.5t6.5 -14.5q6 -5 14 -5t15 6q62 67 149 89q50 12 75 9q1 0 2 -1q8 0 14 6t6 15q0 8 -5.5 14t-13.5 6zM893 111zM944 358q-31 76 -140 177q72 47 104 124q6 14 -6 23q-92 77 -238 120q-152 46 -278 27q-133 -20 -192 -109q-1 -1 -2 -3
q-5 -7 -22 -44q-6 -14 -11 -25q-3 -7 -4 -9t-1 -6q-11 -41 -5 -84q-1 -2 -1 -4q0 -9 1.5 -28t12 -70.5t28.5 -103.5q35 -103 94 -195q74 -116 182 -209q6 -5 14 -5q9 0 15 7q6 6 5 14.5t-7 14.5q-103 89 -174 199q-56 88 -90 185q-8 24 -15 47q75 -100 204 -172.5t241 -88.5
h2q12 0 18 10q27 42 36.5 85t-0.5 76q57 -3 112 2.5t74.5 10t29.5 7.5q9 3 13 11q3 8 0 16zM944 358z" />
    <glyph glyph-name="uniE622" unicode="&#xe622;" 
d="M619 483q-9 9 -21 18q-12 12 -29 12t-29 -12.5t-12 -29.5q0 -15 9 -27v0q5 -5 11 -8q7 -7 11 -10l3 -4q31 -33 26 -80t-38 -80l-184 -184q-32 -32 -78 -32t-78 32l-4 4q-32 32 -32 78t32 78l81 81q17 14 17 35q0 19 -13 32t-32 13q-14 0 -25 -7l-1 -1q-5 -4 -9 -8
l-84 -79q-60 -60 -60 -144.5t60 -144.5l3 -3q60 -59 144.5 -59t144.5 59l184 184q60 60 62.5 142t-56.5 142zM884 753l-3 3q-60 59 -144.5 59t-144.5 -59l-184 -184q-60 -60 -61.5 -136.5t57.5 -136.5l3 -4q6 -5 11 -10q4 -4 10 -8v0q9 -5 20 -5q16 0 27.5 11.5t11.5 27.5
q0 9 -4 17q-3 8 -22 26l-3 3q-30 35 -24 75t40 74l184 184q33 32 78.5 32t78.5 -32l3 -4q32 -32 32 -78t-32 -78l-81 -81q-18 -13 -18 -36q0 -18 13 -31.5t32 -13.5q12 0 23 7l1 1q6 4 11 9l85 79q60 60 59.5 144.5t-59.5 144.5z" />
    <glyph glyph-name="uniE623" unicode="&#xe623;" 
d="M750 306l191 192q28 28 28 64.5t-28 63.5l-191 192q-12 11 -32 18q-5 5 -32 5q-23 0 -32 -5q-28 -13 -32 -18l-188 -196l-351 -352q-28 -28 -28 -64.5t28 -63.5l191 -192q23 -23 55 -23h5h4h5h534v46h-456zM366 -13q-7 -14 -28 -14h-4q-18 0 -32 14l-192 191q-9 19 -9 32
q0 19 14 32l296 297q0 -22 23 -45l192 -192q14 -14 41 -23z" />
    <glyph glyph-name="uniE624" unicode="&#xe624;" 
d="M157 132q-13 0 -22.5 -9.5t-9 -23t9.5 -22.5t23 -9q6 0 16.5 -1t38.5 -6t54 -14t57.5 -28.5t55.5 -45.5q10 -11 24 -11q12 0 21 8q10 9 11 22.5t-8 23.5q-29 32 -67.5 56t-70.5 35t-64.5 17t-47.5 7t-21 1zM833 306q52 88 63 192.5t-23 186.5q-8 19 -29 20h-10
q-95 0 -175 -36q-56 104 -127 156l-4 4q-15 9 -31 2q-5 -2 -8 -5q-72 -52 -128 -156q-79 35 -171 35h-10q-21 -1 -29 -20q-34 -82 -23 -186.5t63 -192.5q44 -76 111.5 -122t149.5 -57q4 -1 9 -1h19v-160q0 -13 9 -22.5t22.5 -9.5t23 9.5t9.5 22.5v160h19q4 0 9 1
q82 11 149.5 57t111.5 122zM866 132q-6 0 -20 -0.5t-46 -7t-64 -17.5t-71 -34.5t-69 -56.5q-9 -10 -8.5 -23t10.5 -22q9 -9 22 -9q14 0 23 10q25 27 57 46.5t58 28.5t53.5 14t38 6t16.5 1q13 0 22.5 9t9.5 22.5t-9 23t-23 9.5z" />
    <glyph glyph-name="uniE625" unicode="&#xe625;" 
d="M256 474h-141q-14 0 -21.5 -7.5t-7.5 -15.5l-1 -7l30 -474q0 -13 8 -20.5t13 -8.5t8 -1h124q11 0 17.5 4.5t7.5 9.5l1 5v477q-4 33 -34 37zM883 474h-235q66 248 -19 330q-22 21 -44 24q-24 0 -37 -8.5t-15.5 -18t-3 -21t-0.5 -12.5q0 -46 -18 -93t-44 -82t-52 -63
t-44 -42l-18 -14v-470q0 -30 31.5 -47t58.5 -17h351q9 0 18.5 9.5t16.5 20.5t13 26t8 20.5t3 9.5q38 133 59.5 232t24 122.5t2.5 33.5q1 18 -4.5 30.5t-14 18t-17 8.5t-14.5 3h-6z" />
    <glyph glyph-name="uniE626" unicode="&#xe626;" 
d="M983 -56h-941v886h41v-845h900v-41zM193 540h72v-448h-72v448zM618 377h71v-285h-71v285zM832 553h71v-461h-71v461zM411 771h71v-679h-71v679z" />
    <glyph glyph-name="uniE627" unicode="&#xe627;" 
d="M226 127h-36v651h507v-36h36v36v4q0 3 -2 9t-5.5 11t-11 8.5t-17.5 3.5h-507q-16 0 -25 -9t-10 -18l-1 -9v-651v-5q0 -2 2 -8t5.5 -11t11 -9t17.5 -4h36v37zM299 -54q-16 0 -25.5 9t-10.5 18l-1 9v688q0 1 0.5 3.5t2.5 8.5t5.5 11t11 9t17.5 4h543q16 0 25 -9t10 -18
l1 -9v-471l-254 -253h-325zM299 -18h325l218 217v471h-543v-688zM621 -49q-2 0 -4 1q-4 1 -16.5 14t-12.5 16v217q0 1 0.5 3.5t2.5 9t5 11t10.5 8.5t17.5 4h254l-29 -29l-221 -252q-3 -3 -7 -3zM624 199v-217l218 217h-218zM769 452h-289v37h289v-37zM769 344h-289v36h289
v-36zM624 597h-108v-36h108v36zM371 489h72v-37h-72v37zM371 380h72v-36h-72v36z" />
    <glyph glyph-name="uniE628" unicode="&#xe628;" 
d="M999 370q0 1 1 2l1 1v1q1 1 1 2v0q1 1 1 2v2v0q1 1 1 2v2v2q0 1 -1 2v1v2q0 1 -1 2q0 1 -1 2q0 1 -1 2l-1 1v1q-1 1 -2 1v0l-157 157q-7 7 -16 7t-16 -6.5t-7 -16t7 -16.5l118 -118h-349q-9 0 -16 -6.5t-7 -16t7 -16.5t16 -7h349l-118 -118q-7 -6 -7 -15.5t7 -16.5t16 -7
t16 7l157 157zM376 676l118 118v-349q0 -10 6.5 -16.5t16 -6.5t16 6.5t6.5 16.5v349l118 -118q7 -7 16.5 -7t16 6.5t6.5 16t-6 16.5l-157 157q-1 1 -2 1l-2 2q-1 0 -2 1q-1 0 -2 1h-2v1h-2h-2h-2h-1h-2h-2h-2v-1h-2v0q-1 -1 -2 -1q-1 -1 -2 -1l-2 -2q-1 0 -2 -1l-157 -157
q-6 -7 -6 -16.5t6.5 -16t16 -6.5t16.5 7zM657 93l-118 -118v347q0 10 -6.5 16.5t-16 6.5t-16 -6.5t-6.5 -16.5v-347l-118 118q-7 6 -16.5 6t-16 -6.5t-6.5 -16t6 -15.5l157 -157l1 -1l1 -1h1v-1h1l1 -1v0q1 -1 2 -1v0q1 0 2 -1v0h2v-1h2h2h1h2h2q1 0 2 1h2q1 1 2 1t2 1t2 1
v0l2 1v1l1 1l157 157q6 6 6 15.5t-6.5 16t-16 6.5t-16.5 -6zM107 361h348q9 0 15.5 7t6.5 16.5t-6.5 16t-15.5 6.5h-348l118 118q7 7 7 16.5t-6.5 16t-16 6.5t-16.5 -7l-157 -157v0q-1 0 -2 -1v-1l-1 -1q-1 -1 -1 -2q-1 -1 -1 -2v0q-1 -1 -1 -2v-2v-1q-1 -1 -1 -2v-2v-2
q0 -1 1 -2v-2q1 -1 1 -2q0 -2 1 -2v-1q0 -1 1 -1v-1q1 0 1 -1l2 -2l157 -157q7 -7 16.5 -7t16 7t6.5 16t-7 16z" />
    <glyph glyph-name="uniE629" unicode="&#xe629;" 
d="M506.5 212q66.5 0 114 49t47.5 118t-47.5 118t-114 49t-114 -49t-47.5 -118t47.5 -118t114 -49zM506.5 507q50.5 0 86.5 -37.5t36 -90.5t-36 -90.5t-86.5 -37.5t-86.5 37.5t-36 90.5t36 90.5t86.5 37.5zM43 377q59 -149 186 -238t282 -89t282 89t185 238l3 7l-3 7
q-58 149 -185 238t-282 89t-282 -89t-186 -238l-2 -7zM511 679q141 0 257 -80t171 -215q-55 -135 -171 -215t-257 -80t-257 80t-171 215q55 135 171 215t257 80z" />
    <glyph glyph-name="uniE62A" unicode="&#xe62a;" 
d="M821 489h-3q-24 0 -46 -14q-10 28 -32.5 45t-52.5 17q-26 0 -49 -14q-9 28 -31.5 45t-52.5 17q-23 0 -44 -11v93q0 38 -25.5 65t-63.5 27t-65 -27t-27 -65v-355l-56 56q-28 26 -67 24.5t-63 -24.5q-17 -17 -26 -39.5t-5.5 -49.5t24.5 -48l257 -255q8 -8 18 -14
q38 -31 86 -46t128 -15q55 0 97.5 8.5t72.5 23t51 38t33 47.5t19 59t9 65.5t2 71.5v183q0 39 -25 65.5t-63 26.5zM860 214q0 -41 -0.5 -61.5t-5 -54t-13 -50.5t-25.5 -39.5t-41.5 -33t-62.5 -18.5t-87 -8q-73 0 -121.5 16.5t-82.5 50.5l-244 243q-15 17 -14 34.5t15 31.5
t34.5 14t33.5 -12q42 -43 79 -79l53 -52v462q0 17 12.5 30t30.5 13t29.5 -12.5t11.5 -30.5v-294v-5q0 -10 7 -17t17 -7t17 7t7 17v5v120q0 18 12 30.5t30 12.5h4q3 0 10.5 -2.5t13 -6.5t10.5 -13t5 -21v-159v-5q0 -10 7 -17t17 -7t17 7t7 17v5v111q0 18 12 30.5t30 12.5
q1 0 4 -0.5t10.5 -3t13.5 -6.5t10.5 -13t4.5 -20v-140h1q-1 -2 -1 -5q0 -10 7 -17t17 -7t17 7t7 17v5v96q0 18 12 30.5t30 12.5h5q3 0 10 -2.5t12.5 -6.5t10.5 -13t5 -21v-178h-1zM293 531v81q-12 27 -12 56q0 58 40.5 98.5t98 40.5t98.5 -40.5t41 -98.5q0 -15 -4 -30
q27 -1 45 -20q7 25 7 50q0 78 -55 132.5t-132.5 54.5t-132 -54.5t-54.5 -132.5q0 -82 60 -137z" />
    <glyph glyph-name="uniE62B" unicode="&#xe62b;" 
d="M456 488l87 -505q65 66 118 113l117 -157q8 -11 22 -1l50 37q15 10 6 22l-114 152q27 10 66 23t65 20l26 8zM316 255l-130 -95q-15 -11 -17 -29t9.5 -33.5t30 -18.5t33.5 7l130 95q15 11 17 30t-9.5 34t-30 18t-33.5 -8zM927.5 645.5q-11.5 15.5 -30 18.5t-33.5 -8
l-129 -95q-15 -11 -17.5 -29t9 -33.5t30.5 -18.5t34 8l129 94q15 11 17 29.5t-9.5 34zM326 743q-11 15 -29.5 18t-34.5 -8q-14 -11 -16.5 -29t8.5 -33l101 -133q11 -15 30 -18t33 8q15 11 17.5 29.5t-8.5 33.5zM580 586q19 -3 34 8t18 29l20 160q2 19 -9.5 34t-30.5 18
t-34 -7.5t-17 -29.5l-20 -160q-3 -19 8.5 -34t30.5 -18zM336 407q2 19 -9.5 34t-30.5 18l-162 27q-19 2 -34 -8.5t-17 -29.5q-3 -19 8.5 -34t30.5 -18l163 -26q18 -4 33 7t18 30z" />
    <glyph glyph-name="uniE62C" unicode="&#xe62c;" 
d="M750 278q17 0 29 12t12 29q0 20 -16 33q-49 38 -105 60q37 32 58.5 77t21.5 96q0 94 -67 161t-161.5 67t-161.5 -67t-67 -161q0 -51 21.5 -96t58.5 -77q-118 -46 -192 -151t-74 -236q0 -17 12 -29.5t29.5 -12.5t29.5 12.5t12 29.5q0 90 44.5 166.5t121 121t166.5 44.5
q110 0 199 -68q12 -11 29 -11zM522 440q-61 0 -103.5 42.5t-42.5 102.5t43 102.5t103 42.5t102.5 -42.5t42.5 -102.5t-42.5 -102.5t-102.5 -42.5zM901 123h-20v59q0 27 -24 45.5t-58 18.5t-58.5 -18.5t-24.5 -45.5v-59h-21q-8 0 -14 -5.5t-6 -12.5v-129q0 -7 6 -12.5
t15 -5.5h205q9 0 14.5 5.5t5.5 12.5l1 129q0 6 -6.5 12t-14.5 6zM839 123h-82v61q0 13 12 21.5t29.5 8.5t29.5 -8.5t12 -21.5z" />
    <glyph glyph-name="uniE62D" unicode="&#xe62d;" 
d="M915 421h-363v365q0 15 -11 26t-26 11t-26 -11t-11 -26v-365h-369q-15 0 -26 -10.5t-11 -25.5t11 -26t26 -11h369v-366q0 -15 11 -26t26 -11t26 11t11 26v366h363q15 0 26 10.5t11 25.5t-11 26t-26 11z" />
    <glyph glyph-name="uniE62E" unicode="&#xe62e;" 
d="M894 475h-75q-1 2 -11.5 29t-18.5 40l53 51q12 13 12.5 30t-12.5 30l-60 59q-13 13 -30.5 13t-29.5 -13l-50 -53q-13 8 -40 18.5t-29 11.5v75q0 17 -15 29.5t-33 12.5h-86q-18 0 -33 -12.5t-15 -29.5v-75q-2 -1 -29 -11.5t-40 -18.5l-51 53q-13 13 -30 13t-30 -13
l-59 -60q-13 -13 -13 -30.5t13 -29.5l53 -50q-8 -13 -18.5 -40t-11.5 -29h-75q-17 0 -29.5 -15t-12.5 -33v-86q0 -18 12.5 -33t29.5 -15h75q1 -2 11.5 -29t18.5 -40l-53 -51q-13 -13 -13 -30t13 -30l60 -59q13 -13 30.5 -13t29.5 13l50 53q13 -8 40 -18.5t29 -11.5v-75
q0 -17 15 -29.5t33 -12.5h86q18 0 33 12.5t15 29.5v75q2 1 29 11.5t40 18.5l51 -53q13 -12 30 -12t30 12l59 60q13 13 13 30.5t-13 29.5l-53 50q8 13 18.5 40t11.5 29h75q17 0 29.5 15t12.5 33v86q0 18 -12.5 33t-29.5 15zM512 183q-79 0 -140 61t-61 140t61 140t140 61
t140 -61t61 -140t-61 -140t-140 -61z" />
    <glyph glyph-name="uniE62F" unicode="&#xe62f;" horiz-adv-x="1025" 
d="M70 124q-5 -5 -7 -11t-1 -14t2 -13t3 -13t3 -9q83 18 148.5 -15t94.5 -84q43 1 70 10q-1 20 -23.5 47t-60.5 53t-99.5 41t-129.5 8zM538 -31q27 -10 65 -3q37 60 95.5 82t153.5 26q1 5 6.5 17t5.5 16t-1 17q-251 8 -325 -155zM750 609v19q0 11 -3 41t-8.5 54t-18 47.5
t-29.5 30.5q-19 7 -44 1t-52 -20t-49.5 -29t-36.5 -27l-15 -11q-10 9 -26.5 24t-52.5 45.5t-63.5 43.5t-33.5 -1q-5 -10 -21.5 -46.5t-22 -48t-18 -40.5t-18.5 -44.5t-14.5 -37.5t-14.5 -42q-21 -119 19 -209t135 -146q-4 -8 -6 -20q-2 -47 28 -132.5t53 -123.5l80 -3
q-9 16 -22 42.5t-35.5 91.5t-25.5 111q109 -38 210.5 -3.5t185.5 136.5q24 29 49 72.5t38.5 72t42.5 93.5q13 28 -169 54q-38 5 -42 5z" />
    <glyph glyph-name="uniE630" unicode="&#xe630;" horiz-adv-x="1025" 
d="M721.5 406q-21.5 0 -37 16t-15.5 39t15.5 39t37 16t37 -16t15.5 -39t-15.5 -39t-37 -16zM512 406q-22 0 -37.5 16t-15.5 39t15.5 39t37.5 16t37 -16t15 -39t-15 -39t-37 -16zM302.5 406q-21.5 0 -36.5 16t-15 39t15 39t37 16t37 -16t15 -39t-15.5 -39t-37 -16zM853 802
h-682q-109 0 -109 -114v-456q0 -57 25.5 -84.5t79.5 -27.5h104l-12 -116q0 -23 19 -33q8 -5 17 -5q11 0 20 6l208 148h334q54 0 79.5 27.5t25.5 84.5v456q0 114 -109 114z" />
    <glyph glyph-name="uniE631" unicode="&#xe631;" 
d="M523 767q-5 4 -11 4t-11 -4l-233 -219q-2 -2 -0.5 -5.5t4.5 -3.5h151v-223q0 -6 4.5 -11t11.5 -5h146q7 0 11.5 5t4.5 11v223h151q3 0 4.5 3.5t-0.5 5.5zM953 231l-143 99h-89l150 -121l-165 2q-9 0 -14 -9l-46 -110h-268l-46 110q-5 9 -14 9h-164l149 119h-89l-143 -99
q-17 -10 -26 -30.5t-4 -38.5l26 -145q5 -19 22.5 -32t37.5 -13h770q20 0 37.5 13t22.5 32l26 145q5 18 -4 38.5t-26 30.5zM953 231z" />
    <glyph glyph-name="uniE632" unicode="&#xe632;" horiz-adv-x="1025" 
d="M887 290q-49 -7 -83 63q53 30 58 32q30 15 63 35q7 5 -4 7q-11 0 -73 7q-9 1 -19.5 2.5t-25 3t-23.5 2.5q0 39 17.5 67t50.5 32q37 4 68 -32t42 -89q9 -56 -12.5 -90t-58.5 -40zM619 243q-48 -5 -82 60l53 40l57 43q9 4 -2 6q-4 0 -72 10l-66 10q-1 42 15 67t44 28
q38 4 71 -30.5t47 -96.5q11 -53 -9 -94t-56 -43zM827 613q-36 29 -88 51.5t-87 33t-101 26.5q-10 3 -33.5 8.5t-30 7.5t-23 6.5t-24.5 8.5t-20 9.5t-24 13.5q-32 20 -76.5 40.5t-49.5 14.5q-4 -4 0.5 -13.5t14 -26t13.5 -29.5q23 -71 -36 -116q-209 -157 -200 -350
q6 -110 70 -196.5t170 -130.5t231 -36q190 12 308 123t121 279q5 163 -135 276z" />
    <glyph glyph-name="uniE633" unicode="&#xe633;" 
d="M1023 404q-33 31 -86 81t-180.5 164t-211.5 179l-2 -254q-8 -1 -23.5 -3.5t-60 -13t-87.5 -25t-98.5 -42t-100.5 -61t-86.5 -85t-63.5 -111.5q-2 -5 -5.5 -15.5t-9.5 -43t-6 -65.5t11 -81t33 -93q2 4 0 15t3.5 40.5t13 62t28.5 77.5t51 87q5 6 13.5 14.5t43 27t76 29.5
t114 12t154.5 -18l-2 -250q15 0 135.5 93t233.5 185.5t113 93.5z" />
    <glyph glyph-name="uniE634" unicode="&#xe634;" 
d="M512 834q-186 0 -318 -132t-132 -318t132 -318t318 -132t318 132t132 318t-132 318t-318 132zM770 501l-291 -291q-10 -10 -24 -12t-25 5q-5 3 -9 7l-167 167q-12 12 -12 29t12 29t29 12t28 -12l139 -139l263 262q11 12 28 12t29 -12t12 -28.5t-12 -28.5zM770 501z" />
    <glyph glyph-name="uniE635" unicode="&#xe635;" 
d="M728 757q-97 0 -167 39q-69 38 -166 38q-76 0 -167 -50v-423q91 50 167 50q96 0 166 -39q70 -38 167 -38q72 0 167 52v423q-95 -52 -167 -52zM166 834q-15 0 -26 -11t-11 -27v-824q0 -16 11 -27t26.5 -11t26.5 11t11 27v824q-1 16 -11.5 27t-26.5 11z" />
    <glyph glyph-name="uniE636" unicode="&#xe636;" 
d="M915 421h-363h-443q-15 0 -25.5 -10.5t-11.5 -25.5q0 -16 11 -26.5t26 -10.5l442 -1h1v0h362q15 0 26 10.5t11 25.5q1 16 -9.5 27t-26.5 11z" />
    <glyph glyph-name="uniE637" unicode="&#xe637;" 
d="M512 641l-303 -303h195v-347h216v347h195zM209 777h606v-78h-606v78z" />
    <glyph glyph-name="uniE638" unicode="&#xe638;" 
d="M962 650l-60 60l-532 -532l-248 247l-60 -60l299 -299l8 -8l9 8z" />
    <glyph glyph-name="uniE639" unicode="&#xe639;" 
d="M805 834h-586q-64 0 -110 -44.5t-46 -107.5v-596q0 -63 46 -107.5t110 -44.5h586q64 0 110 44.5t46 107.5v596q0 63 -46 107.5t-110 44.5zM894 86q0 -36 -26 -61t-63 -25h-586q-37 0 -63 25t-26 61v596q0 36 26 61t63 25h586q37 0 63 -25t26 -61v-596zM894 86z" />
    <glyph glyph-name="uniE63A" unicode="&#xe63a;" 
d="M512 872q-98 0 -187 -38t-153.5 -102.5t-102.5 -153.5t-38 -187t38 -187.5t102.5 -153.5t153.5 -102.5t187 -38.5t187 38.5t153.5 102.5t102.5 153.5t38 187.5t-38 187t-102.5 153.5t-153.5 102.5t-187 38zM157 582h592l-85 86l42 43l161 -161l-166 -166l-40 40l88 88
h-592v70zM867 224h-592l85 -85l-42 -43l-161 161l166 166l40 -41l-88 -88h592v-70z" />
    <glyph glyph-name="uniE63B" unicode="&#xe63b;" 
d="M897 -19h-770q-25 0 -45 15t-26 38l-27 146q-5 22 5 45t30 35l143 100q3 2 7 2h89q8 0 11 -8t-4 -13l-123 -99h131q16 0 24 -14l1 -1l43 -104h252l43 104l1 1q8 14 24 14l132 -1l-125 100q-6 5 -3 13q2 8 11 8h89q4 0 7 -2l143 -100q20 -12 30 -35t4 -45l-26 -146v0
q-6 -23 -26 -38t-45 -15zM79 39q4 -14 18 -24.5t30 -10.5h770q16 0 30.5 10.5t17.5 24.5l27 145v1q3 14 -4 31t-21 25l-141 97h-52l124 -100q7 -5 4 -13t-11 -8l-165 2l-4 -2l-45 -110q-3 -7 -11 -7h-268q-8 0 -11 7l-45 110q-2 2 -4 2h-164q-8 0 -11 8t4 13l123 98h-53
l-140 -97v0q-14 -8 -21 -25t-4 -31v-1zM585 309h-146q-12 0 -20 8t-8 19v211h-139q-11 0 -15.5 11t4.5 19l232 218q8 8 19 8t19 -8l232 -218q9 -8 4.5 -19t-15.5 -11h-139v-211q0 -11 -8 -19t-20 -8zM288 570h135q4 0 7.5 -3t3.5 -8v-223q0 -1 1.5 -2.5t3.5 -1.5h146
q2 0 3.5 1.5t1.5 2.5v223q0 4 3.5 7.5t7.5 3.5h135l-221 208q-1 1 -3 1t-3 -1z" />
    <glyph glyph-name="uniE63C" unicode="&#xe63c;" 
d="M870 -44h-708q-30 0 -51.5 21.5t-21.5 51.5v708q0 30 21.5 51.5t51.5 21.5h708q30 0 51.5 -21.5t21.5 -51.5v-708q0 -30 -21.5 -51.5t-51.5 -21.5zM162 791q-22 0 -38 -15.5t-16 -38.5v-708q0 -22 15.5 -38t38.5 -16h708q22 0 38 16t16 38v708q0 22 -16 38t-38 16h-708z
M592 56h-64q-7 0 -9 7l-43 120h-161l-44 -120q-2 -7 -9 -7h-61q-5 0 -8 4.5t-1 8.5l165 439q3 6 9 6h68q7 0 9 -6l158 -439q1 -5 -2 -9t-7 -4zM535 76h43l-151 419h-54l-159 -419h41l44 120q2 7 9 7h175q7 0 9 -7zM465 236h-138q-5 0 -8 4t-1 9l70 194q3 7 9 7q7 0 9 -7
l68 -194q2 -5 -1 -9t-8 -4zM340 255h111l-54 156z" />
    <glyph glyph-name="uniE63D" unicode="&#xe63d;" 
d="M863 -45h-3q-7 2 -7 10q15 218 -66 305q-52 55 -141 55q-80 0 -166 -40v-230q0 -6 -6 -8.5t-11 1.5l-370 373q-6 6 0 13l370 376q5 5 11 2.5t6 -8.5l-3 -208q330 -52 422 -240q25 -51 31.5 -110.5t-0.5 -104.5t-22 -91t-23 -62.5t-14 -27.5q-2 -5 -8 -5zM646 345
q97 0 155 -62q77 -82 73 -270q13 31 22 65t15.5 80t-0.5 96t-29 93q-89 182 -416 231q-9 1 -8 10l2 192l-346 -352l346 -349v213q0 5 6 8q91 45 180 45z" />
    <glyph glyph-name="uniE63E" unicode="&#xe63e;" 
d="M936 404h-109q-7 118 -90 202l-2 2q-84 84 -203 92v109q0 9 -6.5 15t-15.5 6q-8 0 -14.5 -6t-6.5 -15v-109q-118 -8 -203 -92q-85 -85 -92 -204h-110q-8 0 -14.5 -6t-6.5 -15q0 -8 6.5 -14.5t14.5 -6.5h110q7 -118 92 -203q86 -85 203 -93v-108q0 -9 6.5 -15t15 -6t15 6
t6.5 15v108q119 8 203 93q85 85 92 203h109q9 0 15 6.5t6 14.5q0 9 -6 15t-15 6zM694 200q-67 -67 -161 -76v113q0 9 -7 16t-16 7t-15.5 -7t-6.5 -16v-113q-95 9 -161 76l-2 1q-65 67 -73 160h112q9 0 15.5 6.5t6.5 16.5q0 9 -6.5 15.5t-15.5 6.5h-112q8 94 75 161
q66 66 161 76v-113q0 -9 6.5 -16t15.5 -7t15.5 7t6.5 16v113q94 -9 162 -76l1 -2q66 -67 74 -160h-113q-9 0 -15.5 -6.5t-6.5 -15.5t7 -16t15 -7h113q-8 -94 -75 -160z" />
    <glyph glyph-name="uniE63F" unicode="&#xe63f;" 
d="M854 399q25 86 8 171q-24 118 -116 197.5t-213 84.5h-18q-121 0 -216.5 -74t-126.5 -191q-31 -121 21 -233q58 -128 186 -182q-31 -18 -58 -46q-64 -67 -76 -157q-2 -11 -2 -35q1 -13 10 -21t22 -8h1q12 0 20.5 7.5t10.5 19.5q1 4 1 11v1q1 53 26 93q62 107 184 107h1
q73 0 130 -49q71 -61 74 -156q0 -7 1 -11q3 -11 11.5 -17.5t19.5 -6.5h3q13 1 21.5 10.5t7.5 22.5q0 5 -1 9q-2 30 -5 45q-25 119 -129 181q66 27 116 78q62 65 86 149zM805 499q0 -120 -84.5 -205t-203.5 -85h-2q-119 0 -204 85t-85 205t86 204q85 85 204 85t204 -84.5
t85 -204.5zM638 390q-10 8 -21 8q-13 0 -23 -9q-2 -1 -4.5 -3t-3.5 -3q-10 -11 -20 -18q-24 -16 -48 -16q-13 0 -27 5q-31 10 -56 34q-9 10 -24 10q-12 0 -23 -10q-8 -10 -7 -23t11 -23q17 -16 42 -32q39 -24 85 -25h4q7 0 10 1h3q58 8 105 59q8 10 8 23q-1 14 -11 22z" />
    <glyph glyph-name="uniE640" unicode="&#xe640;" 
d="M725 557q-2 2 -40 21l7 7q41 37 55 75q4 11 10 34q10 58 -26 87q-50 42 -115 16q-5 -2 -8 0q-40 37 -96 37t-96 -36q-3 -3 -8 -1q-32 14 -67 7t-57 -33t-18 -62q9 -65 53 -113l19 -19q-4 -2 -5 -2q-114 -51 -186 -153.5t-81 -226.5q-5 -74 12 -137q14 -54 58.5 -89
t102.5 -35h273h275q86 0 137 72q21 30 29 79q16 101 -10 194q-51 184 -218 278z" />
    <glyph glyph-name="uniE641" unicode="&#xe641;" horiz-adv-x="1025" 
d="M929 546q-31 74 -88.5 131.5t-132.5 89.5q-77 33 -161.5 33t-161.5 -33q-75 -32 -132.5 -89.5t-88.5 -131.5q-13 -30 -21 -63l-21 47q-8 18 -29 18q-6 0 -12 -2q-12 -6 -17 -18t1 -24l64 -144q0 -1 1 -3q1 -1 1 -2h1v-1h1v-1l1 -1q0 -1 1 -1v-1h1l1 -1l1 -1v0q1 0 1 -1
l1 -1h1q1 0 2 -1l4 -2l1 -1h1h2v0h1l1 -1h1v0h1h1h1h1h2h1h2q2 1 3 1v0q1 0 2 1v0h1l1 1h1l2 1h1q2 2 5 4l119 104q9 9 10 22t-7 22q-10 11 -24 11q-12 0 -21 -8l-56 -49q24 123 122 204.5t225 81.5q95 0 176.5 -47.5t129 -128.5t47.5 -177t-47.5 -177t-129 -128.5
t-176.5 -47.5q-131 0 -230 85q-9 8 -21 8q-14 0 -23 -11q-9 -10 -8 -23t11 -21q117 -100 271 -100q84 0 161 32q75 32 132.5 89.5t88.5 131.5q33 78 33 162q0 85 -33 162zM673 539q-9 9 -22 9t-22 -9l-83 -82l-82 82q-9 9 -22 9t-22 -9t-9 -22t9 -22l51 -51h-50q-6 0 -6 -6
v-51q0 -6 6 -6h94v-42h-94q-6 0 -6 -6v-51q0 -6 6 -6h94v-94q0 -13 9 -22t22 -9t22.5 9t9.5 22v94h94q6 0 6 6v51q0 6 -6 6h-94v42h94q6 0 6 6v51q0 6 -6 6h-50l51 51q9 9 9 22t-9 22z" />
    <glyph glyph-name="uniE642" unicode="&#xe642;" 
d="M241 834q13 -3 14 -3q9 -3 14 -11.5t3 -18.5t-9 -16.5t-17 -6.5q-39 -1 -68 -23q-43 -33 -44 -90q-1 -17 -16 -25q-15 -7 -28 3q-12 9 -11 24q2 89 75 139q37 25 87 28zM945 669q1 -11 -5 -19q-12 -17 -31 -11t-19 27q-1 33 -17 58q-32 51 -94 53q-15 1 -23 12.5t-3 25.5
q7 19 27 18q93 -2 142 -82q21 -35 23 -82zM727 294h-264v2h-2v390h79v-312h187v-80zM929 364q0 114 -56 211t-152 153.5t-209 56.5t-209 -56.5t-152 -153.5t-56 -211q0 -89 35 -169t97 -138l-85 -86l37 -37l88 89q109 -80 245 -80q142 0 255 88l95 -97l37 37l-93 94
q58 59 90.5 136t32.5 163z" />
    <glyph glyph-name="uniE643" unicode="&#xe643;" horiz-adv-x="1025" 
d="M866 387q66 59 96 89q-37 34 -87 67q52 42 70 70q33 51 4 83q-16 18 -53 29t-87 11q-87 1 -203 -13v23h-505v-71h66v-194q-59 -5 -105 -12l39 -95q127 33 322 51v-48q-131 -12 -241 -13l15 -67q54 1 132 4q-125 -74 -223 -86l17 -63q54 8 109 23.5t92.5 30t73 32t46.5 24
t17 9.5l-33 35q8 0 22.5 1t17.5 1v-148l-56 61q-4 -4 -12.5 -11t-37.5 -26.5t-62 -36.5t-87 -35.5t-112 -27.5q11 -34 18 -53q51 0 174 38t175 82v-120h136v172q100 -110 270 -181q9 10 30 37t38 49l16 22q-99 21 -185 65q43 8 90.5 33t72.5 46l26 21l-110 66
q-2 -4 -6.5 -10t-19.5 -22.5t-31.5 -31t-43 -30.5t-54.5 -25q-48 35 -81 76q125 10 194 24q-12 14 -26 38t-22 41l-8 17q-31 -13 -81 -24q56 30 108 63q47 -43 85 -90zM419 500q-77 -3 -149 -6v32h149v-26zM419 574h-149v35h149v-35zM419 657h-149v32h149v-32zM610 496
l45 -86q-54 -11 -124 -21v46q36 2 78 4v65q-31 0 -78 -1v186h53l13 -44l3 1q4 2 10 4t15 5.5t20.5 7t25 7t29.5 6.5t32.5 5.5t36 4t38.5 1.5h4q40 -1 53 -17q11 -13 -6 -34q-13 -17 -43 -39q-34 19 -69 35.5t-53 23.5l-18 7l-50 -54q41 -23 97 -66q-52 -26 -112 -47z" />
    <glyph glyph-name="uniE644" unicode="&#xe644;" 
d="M901 683l-361 147q-25 8 -51 0l-366 -147q-16 -4 -27.5 -21t-11.5 -35v-428q0 -40 34 -57l366 -197q5 -11 28 -11t28 6l366 197q34 17 34 56v434q0 18 -11.5 35t-27.5 21zM506 790h12l78 -28l-349 -163l-90 51zM490 -15l-355 191q-4 0 -8 6t-4 11v428l96 -50v-169
q0 -6 11 -17l113 -57q13 -8 23.5 -2t10.5 19v141l113 -56v-445zM512 464l-107 56l349 175l113 -46zM895 193q0 -5 -11 -17l-355 -186v440l366 191v-428z" />
    <glyph glyph-name="uniE645" unicode="&#xe645;" 
d="M900 87v536q0 64 -45.5 109t-109.5 45h-39v-58h20q48 0 82 -33.5t34 -81.5v-498q0 -47 -34 -81t-82 -34h-427q-49 0 -83 34t-34 81v498q0 48 34 81.5t83 33.5h19v58h-39q-64 0 -109.5 -45t-45.5 -109v-536q0 -63 45.5 -108t109.5 -45h466q64 0 109.5 45t45.5 108z
M444 777h136q12 0 20.5 -8.5t8.5 -20.5t-8.5 -20.5t-20.5 -8.5h-136q-12 0 -20.5 8.5t-8.5 20.5t8.5 20.5t20.5 8.5zM434 662h156q32 0 54.5 22.5t22.5 53.5q0 34 -23.5 65t-53.5 31h-156q-30 0 -53.5 -31t-23.5 -65q0 -31 22.5 -53.5t54.5 -22.5zM707 466q-9 7 -20 6.5
t-19 -8.5l-210 -223l-20 19l-84 76q-8 8 -19 7.5t-19 -8.5t-7.5 -19t8.5 -19l125 -114q7 -7 18 -7t19 9l5 5l224 238q8 8 7.5 19t-8.5 19z" />
    <glyph glyph-name="uniE646" unicode="&#xe646;" 
d="M739 777h-38v-58h19q47 0 80 -33.5t33 -81.5v-498q0 -47 -33 -81t-80 -34h-416q-47 0 -80 34t-33 81v498q0 48 33 81.5t80 33.5h19v58h-38q-63 0 -107 -45t-44 -109v-536q0 -63 44 -108t107 -45h454q62 0 106.5 45t44.5 108v536q0 64 -44 109t-107 45zM446 777h132
q12 0 20.5 -8.5t8.5 -20.5t-8.5 -20.5t-20.5 -8.5h-132q-12 0 -20.5 8.5t-8.5 20.5t8.5 20.5t20.5 8.5zM436 662h152q31 0 53 22.5t22 53.5q0 34 -22.5 65t-52.5 31h-152q-30 0 -52.5 -31t-22.5 -65q0 -32 22 -54t53 -22zM656 211l-109 111l109 109q7 7 7 17.5t-7 18
t-17.5 7.5t-18.5 -7l-108 -109l-107 109q-8 7 -18.5 7t-17.5 -7.5t-7 -18t7 -17.5l107 -109l-108 -108q-7 -7 -7 -17.5t7 -18t17.5 -7.5t17.5 7l108 108l109 -110q8 -8 18 -8t17.5 7.5t7.5 18t-7 17.5z" />
    <glyph glyph-name="uniE647" unicode="&#xe647;" 
d="M744 777h-39v-58h19q48 0 82 -33.5t34 -81.5v-498q0 -47 -34 -81t-82 -34h-424q-48 0 -82 34t-34 81v498q0 48 34 81.5t82 33.5h19v58h-38q-64 0 -109.5 -45t-45.5 -109v-536q0 -63 45.5 -108t108.5 -45h464q63 0 108.5 45t45.5 108v536q0 64 -45.5 109t-108.5 45z
M444 777h136q11 0 19.5 -8.5t8.5 -20.5t-8.5 -20.5t-19.5 -8.5h-136q-11 0 -19.5 8.5t-8.5 20.5t8 20.5t20 8.5zM435 662h154q32 0 54.5 22.5t22.5 53.5q0 34 -23 65t-54 31h-154q-31 0 -54 -31t-23 -65q0 -31 22.5 -53.5t54.5 -22.5zM305 481q0 -11 7 -19t17 -8h366
q10 0 17 8t7 19t-7 19t-17 8h-366q-10 0 -17 -8t-7 -19zM693 362h-364q-10 0 -17 -8t-7 -19t7 -19t17 -8h366q10 0 17 8t7 19q0 12 -7.5 19.5t-18.5 7.5zM693 204h-364q-10 0 -17 -8t-7 -18.5t7 -18.5t17 -8h366q10 0 17 8t7 18q0 12 -7.5 19.5t-18.5 7.5z" />
    <glyph glyph-name="uniE648" unicode="&#xe648;" 
d="M725 235q35 0 59.5 -24.5t24.5 -59.5t-24.5 -59.5t-59.5 -24.5t-60 24.5t-25 59.5t25 59.5t60 24.5zM255 235q33 0 56.5 -23.5t23.5 -56.5t-23.5 -56.5t-56.5 -23.5t-56.5 23.5t-23.5 56.5t23.5 56.5t56.5 23.5zM351 525q-50 2 -111 0q-21 -1 -59.5 -55.5t-38.5 -89.5
v-16h209v161zM416 171h-34q-6 48 -42 80.5t-85 32.5t-85.5 -32.5t-42.5 -80.5h-33q-13 0 -22.5 9.5t-9.5 22.5v177q0 31 29.5 85.5t68.5 97t63 42.5h193q13 0 22.5 -9.5t9.5 -22.5v-370q0 -13 -9.5 -22.5t-22.5 -9.5zM914 171h-66q-6 48 -42 80.5t-85 32.5t-85.5 -32.5
t-42.5 -80.5h-49q-20 0 -34 14t-14 34v434q0 20 14 34t34 14h370q20 0 34 -14t14 -34v-434q0 -20 -14 -34t-34 -14z" />
    <glyph glyph-name="uniE649" unicode="&#xe649;" 
d="M764 498h-415q4 -80 61 -136q60 -61 146 -61t147 61q57 57 61 136zM241 498h-134v74l143 15q27 107 114.5 177t200.5 70q88 0 163 -43.5t118 -118t43 -162.5v-12h-42q-3 -114 -85 -196q-85 -85 -205.5 -85t-206.5 85q-81 82 -85 196h-24zM307 171h167v-77h187v77h152
l103 -237h-683z" />
    <glyph glyph-name="uniE64A" unicode="&#xe64a;" 
d="M926 719h-828q-15 0 -25.5 -11.5t-10.5 -28.5v-88h900v88q0 17 -10.5 28.5t-25.5 11.5zM445 336h69v73h-69v-73zM176 170h339v73h-339v-73zM400 409h-224v-73h224v73zM962 527v-440q0 -16 -10.5 -27t-25.5 -11h-828q-15 0 -25.5 11t-10.5 27v440h900z" />
    <glyph glyph-name="uniE64B" unicode="&#xe64b;" 
d="M872 445h-38v61q0 8 -5.5 13t-13 5t-12.5 -5t-5 -13v-61h-107q-8 0 -13 -5t-5 -13v-93h-142v217q0 8 -5.5 13t-13.5 5h-53v104q0 7 -5 12.5t-13 5.5h-89v125q0 7 -5.5 12.5t-13 5.5t-13 -5.5t-5.5 -12.5v-125h-89q-8 0 -13.5 -5.5t-5.5 -12.5v-104h-55q-7 0 -12.5 -5
t-5.5 -13v-599q0 -7 5.5 -12.5t12.5 -5.5h720q7 0 12.5 5.5t5.5 12.5v475q0 8 -5.5 13t-12.5 5zM300 45h-55v55h55v-55zM300 163h-55v55h55v-55zM300 281h-55v55h55v-55zM300 399h-55v55h55v-55zM419 45h-55v55h55v-55zM420 163h-56v55h56v-55zM420 281h-56v55h56v-55z
M420 399h-56v55h56v-55zM654 55h-123v37h123v-37zM654 176h-123v37h123v-37zM853 55h-144v37h144v-37zM853 176h-144v37h144v-37zM853 298h-144v36h144v-36z" />
    <glyph glyph-name="uniE64C" unicode="&#xe64c;" 
d="M842 315h-206v262q0 7 -5 11.5t-12 4.5h-214q-7 0 -12 -4.5t-5 -11.5v-262h-206q-14 0 -19.5 -13t4.5 -24l330 -338q6 -6 15 -6t15 6l330 338q10 11 4.5 24t-19.5 13zM626 657h-228q-4 0 -7 3.5t-3 8.5v44q0 5 3 8.5t7 3.5h228q4 0 7 -3.5t3 -8.5v-44q0 -12 -10 -12z
M626 766h-228q-4 0 -7 3.5t-3 8.5v44q0 5 3 8.5t7 3.5h228q4 0 7 -3.5t3 -8.5v-44q0 -5 -3 -8.5t-7 -3.5z" />
    <glyph glyph-name="uniE64D" unicode="&#xe64d;" 
d="M512 114q-37 0 -63.5 -26.5t-26.5 -63.5t26.5 -63.5t63.5 -26.5t63.5 26.5t26.5 63.5t-26.5 63.5t-63.5 26.5zM512 174q37 0 63.5 26.5t26.5 63.5v480q0 37 -26.5 63.5t-63.5 26.5t-63.5 -26.5t-26.5 -63.5v-480q0 -37 26.5 -63.5t63.5 -26.5z" />
    <glyph glyph-name="uniE64E" unicode="&#xe64e;" horiz-adv-x="1027" 
d="M189 396l138 81q12 7 15.5 20t-3 25t-19.5 15.5t-25 -3.5l-73 -43q33 92 111.5 148.5t175.5 56.5q98 0 178 -58t111 -153q5 -13 17 -19t24.5 -1.5t18.5 16.5t1 25q-38 115 -134.5 185.5t-215.5 70.5q-117 0 -212.5 -68.5t-135.5 -179.5l-39 68q-6 12 -19 15.5t-24.5 -3
t-15 -20t2.5 -25.5l79 -140q10 -17 28 -17q9 0 16 4zM960 223l-79 141q-7 12 -20 15.5t-24 -3.5l-138 -80q-12 -7 -15.5 -20.5t3.5 -24.5q9 -17 28 -17q9 0 16 4l65 38q-33 -92 -112 -148t-175 -56q-98 0 -178 58t-111 153q-5 13 -17 19t-24.5 1.5t-18.5 -16.5t-2 -25
q39 -115 135.5 -185.5t215.5 -70.5t215.5 70.5t135.5 184.5q1 3 1 6l43 -77q9 -16 28 -16q9 0 16 4q12 7 15.5 20t-3.5 25z" />
    <glyph glyph-name="uniE64F" unicode="&#xe64f;" 
d="M62 490v-418q0 -22 16 -37.5t39 -15.5h790q23 0 39 15.5t16 37.5v425h-900v-7zM907 670h-384v12q0 28 -20.5 47.5t-48.5 19.5h-324q-28 0 -48 -19.5t-20 -47.5v-128h900v64q0 22 -16 37t-39 15z" />
    <glyph glyph-name="uniE650" unicode="&#xe650;" 
d="M512 499q-13 0 -22 -9.5t-9 -22.5v-106h-102q-13 0 -22 -9t-9 -23q0 -13 9 -22t22 -9h102v-106q0 -13 9 -22.5t22 -9.5t22 9.5t9 22.5v106h102q13 0 22 9t9 23q0 13 -9 22t-22 9h-102v106q0 13 -9 22.5t-22 9.5zM900 64h-776v634q0 6 6 6h324q6 0 6 -6v-77h440v-557z
M907 685h-384v13q0 29 -20.5 49.5t-48.5 20.5h-324q-28 0 -48 -20.5t-20 -49.5v-643q0 -23 16 -39t39 -16h790q23 0 39 16t16 39v575q0 23 -16 39t-39 16z" />
    <glyph glyph-name="uniE651" unicode="&#xe651;" 
d="M962 834v-900h-900z" />
    <glyph glyph-name="uniE652" unicode="&#xe652;" 
d="M592 -31q-37 0 -63 26l-402 402q-29 29 -26 70l18 232q2 33 25.5 56.5t56.5 25.5l232 18q41 3 70 -26l402 -402q26 -26 26 -63t-26 -64l-249 -249q-27 -26 -64 -26v0zM440 764h-5l-231 -18q-20 -2 -34 -16t-16 -34l-18 -231q-2 -25 16 -43l402 -402q15 -15 38 -15t39 15
l249 249q16 16 16 38.5t-16 38.5l-402 402q-16 16 -38 16v0zM440 764zM320 509q-29 0 -49.5 20.5t-20.5 50t20.5 50t50 20.5t50 -20.5t20.5 -50t-20.5 -50t-50.5 -20.5v0zM320 615q-14 0 -24.5 -10.5t-10.5 -25t10 -25.5q10 -10 25.5 -10t25.5 10q10 11 10 25.5t-10.5 25
t-25.5 10.5v0zM320 615z" />
    <glyph glyph-name="uniE653" unicode="&#xe653;" 
d="M758 242q13 36 13 73v199q0 76 -48 137.5t-127 85.5v20q0 32 -24.5 54.5t-59.5 22.5t-59.5 -22.5t-24.5 -54.5v-20q-79 -24 -127 -85.5t-48 -137.5v-199q0 -37 13 -73q-52 -2 -87 -25.5t-35 -55.5v-72q0 -9 10 -9h716q10 0 10 9v72q0 32 -35 55.5t-87 25.5zM586 21h-148
q-10 0 -10 -10q0 -32 24.5 -54.5t59.5 -22.5t59.5 22.5t24.5 54.5q0 10 -10 10z" />
    <glyph glyph-name="uniE654" unicode="&#xe654;" 
d="M910 -25h-796q-30 0 -51 21.5t-21 50.5v635q0 30 21 51t51 21h796q30 0 51 -21t21 -51v-635q0 -30 -21 -51t-51 -21zM114 713q-13 0 -22 -9t-9 -22v-635q0 -13 9 -22t22 -9h796q13 0 22 9t9 22v635q0 13 -9 22t-22 9h-796zM667 -19l-342 336l-250 -197l-25 33l278 219
l367 -362zM487 184l-27 31l303 264l213 -204l-29 -30l-185 179z" />
    <glyph glyph-name="uniE655" unicode="&#xe655;" 
d="M683 848h-341q-32 0 -54.5 -22.5t-22.5 -54.5v-775q0 -32 22.5 -54.5t54.5 -22.5h341q32 0 54.5 22.5t22.5 54.5v775q0 32 -22.5 54.5t-54.5 22.5zM466 786h93q6 0 10.5 -4.5t4.5 -11t-4.5 -11t-10.5 -4.5h-93q-7 0 -11.5 4.5t-4.5 11t4.5 11t11.5 4.5zM512.5 -50
q-19.5 0 -33 13.5t-13.5 33t13.5 33t33 13.5t33 -13.5t13.5 -33t-13.5 -33t-33 -13.5zM729 74h-433v619h433v-619z" />
    <glyph glyph-name="uniE656" unicode="&#xe656;" 
d="M925 560q-34 81 -96 143t-143 96q-82 35 -172 35h-2h-2q-90 0 -172 -35q-81 -34 -143 -96t-96 -143q-35 -83 -35 -174t35 -175q34 -80 96 -142t143 -96q82 -35 172 -35h1h1h1h1q90 0 172 35q81 34 143 96t96 142q35 84 35 175t-35 174zM221 677q57 57 131 89q25 10 51 17
q-33 -33 -59 -85q-17 -33 -30 -72q-59 15 -105 40q6 6 12 11zM132 546q21 49 53 91q52 -28 119 -46q-23 -87 -25 -187h-179q3 74 32 142zM185 134q-32 42 -53 91q-29 69 -32 143h179q2 -100 25 -187q-67 -18 -119 -47zM352 6q-74 31 -131 88l-12 12q46 25 105 40
q13 -39 30 -72q26 -52 59 -86q-26 7 -51 18zM494 -24q-28 5 -54 27q-36 31 -64 87q-15 30 -26 65q69 14 144 16v-195zM494 207q-81 -2 -155 -18q-22 83 -24 179h179v-161zM494 404h-179q2 95 24 179q74 -16 155 -18v-161zM494 601q-75 2 -144 16q11 35 26 65q28 56 64 86
q26 23 54 28v-195zM672 766q74 -32 131 -89q6 -5 12 -11q-47 -25 -105 -40q-13 39 -30 72q-26 52 -59 85q26 -7 51 -17zM530 796q28 -5 54 -28q36 -30 64 -86q15 -30 26 -65q-69 -14 -144 -16v195zM530 565q81 2 155 18q22 -84 24 -179h-179v161zM530 368h179
q-2 -96 -24 -179q-74 16 -155 18v161zM584 3q-26 -22 -54 -27v195q75 -2 144 -16q-11 -35 -26 -65q-28 -56 -64 -87zM803 94q-57 -57 -131 -88q-25 -11 -51 -18q33 34 59 86q17 33 30 72q59 -15 105 -40zM892 225q-21 -49 -53 -91q-52 29 -119 47q23 87 25 187h179
q-3 -74 -32 -143zM745 404q-2 100 -25 187q67 18 119 46q32 -42 53 -91q29 -68 32 -142h-179z" />
    <glyph glyph-name="uniE657" unicode="&#xe657;" horiz-adv-x="1025" 
d="M862 629.5q-21 20.5 -50 20.5q-30 0 -51 -20l-339 -340l-159 159q-20 20 -50.5 20t-50.5 -20q-21 -21 -21 -50.5t21 -50.5l210 -210q21 -20 50 -20q30 0 50 20l390 391q21 21 21 50.5t-21 50z" />
    <glyph glyph-name="uniE658" unicode="&#xe658;" 
d="M864 643l-259 -259l259 -259q19 -18 19 -46t-18.5 -46.5t-46.5 -18.5t-46 19l-260 259l-260 -259q-18 -19 -46 -19t-46.5 18.5t-18.5 46.5t19 46l259 259l-259 259q-19 18 -19 46t18.5 46.5t46.5 18.5t46 -19l260 -259l260 259q18 19 46 19t46.5 -18.5t18.5 -46.5
t-19 -46z" />
    <glyph glyph-name="uniE659" unicode="&#xe659;" 
d="M422 154h180v332h161l-251 290l-251 -290h161v-332zM817 264v-167h-610v167h-105v-272h820v272h-105z" />
    <glyph glyph-name="uniE65A" unicode="&#xe65a;" 
d="M138 592h748q14 0 24.5 10.5t10.5 25t-10 24.5t-25 10h-748q-14 0 -24.5 -10.5t-10.5 -24.5t10.5 -24.5t24.5 -10.5zM886 419h-748q-14 0 -24.5 -10.5t-10.5 -24.5t10.5 -24.5t24.5 -10.5h748q14 0 24.5 10.5t10.5 24.5t-10.5 24.5t-24.5 10.5zM886 176h-748
q-14 0 -24.5 -10.5t-10.5 -25t10 -24.5t25 -10h748q14 0 24.5 10t10.5 24.5t-10.5 25t-24.5 10.5z" />
    <glyph glyph-name="uniE65B" unicode="&#xe65b;" 
d="M751 167l-170 67q-33 13 -45 25t0 52q1 6 26 42.5t46.5 83.5t21.5 86q0 104 -59 177.5t-142 73.5t-141.5 -73.5t-58.5 -177.5q0 -29 12.5 -66t27 -62t30.5 -51t17 -27q7 -15 6.5 -32t-6.5 -24q-5 -6 -18.5 -12.5t-23.5 -9.5l-11 -4l-153 -69q-27 -10 -45.5 -33.5
t-18.5 -52.5v-18q0 -31 21.5 -49.5t53.5 -18.5h618q32 0 53.5 18.5t21.5 49.5v18q0 29 -18 53t-45 34v0zM739 36h-618q-11 0 -21 13.5t-10 30.5q1 32 37 44l152 69q51 14 70 39q21 28 14 68q0 2 -1.5 9.5t-1.5 9t-1.5 7t-2 7t-2 5.5t-3.5 6.5t-4.5 6t-5.5 7.5
q-23 28 -46.5 74.5t-23.5 90.5q0 82 47 144.5t111.5 62.5t112 -62.5t47.5 -144.5q0 -24 -9.5 -52t-20 -45.5t-26 -40.5t-18.5 -28q-22 -37 -24 -62q-5 -42 8 -63q5 -7 21.5 -17t29.5 -16l14 -6l170 -67q14 -6 26.5 -19t12.5 -28q1 -15 -11 -29t-23 -14v0zM721 457
q-14 0 -23 7t-9 21t9 21t23 7h225q31 0 31 -28q0 -14 -9.5 -21t-23.5 -7h-223zM769 327q-14 0 -23 7.5t-9 21t9 21t23 7.5h177q30 0 30 -28.5t-31 -28.5h-176zM828 205q-14 0 -23 7t-9 21t9 21t23 7h119q31 0 31 -28q0 -14 -9 -21t-23 -7h-118z" />
    <glyph glyph-name="uniE65C" unicode="&#xe65c;" 
d="M874 712q-43 0 -73 -30.5t-30 -73.5q0 -40 27 -70l-133 -211q-16 5 -32 5q-28 0 -53 -14l-101 98q16 25 16 54q0 43 -30.5 73.5t-73.5 30.5t-73 -30.5t-30 -73.5q0 -29 15 -54l-120 -158q-16 5 -33 5q-43 0 -73.5 -30t-30.5 -73t30.5 -73.5t73.5 -30.5t73 30.5t30 73.5
q0 40 -27 70l114 150q24 -13 51.5 -13t50.5 13l102 -98q-15 -25 -15 -53q0 -43 30.5 -73.5t73.5 -30.5t73 30.5t30 73.5q0 41 -28 71l133 210q16 -5 33 -5q43 0 73.5 30t30.5 73t-30.5 73.5t-73.5 30.5z" />
    <glyph glyph-name="uniE65D" unicode="&#xe65d;" 
d="M786 -3h-110q-45 0 -77 32.5t-32 78.5v110q0 46 32 78.5t77 32.5h110q45 0 77.5 -32.5t32.5 -78.5v-110q0 -46 -32.5 -78.5t-77.5 -32.5zM841 218q0 23 -16 39.5t-39 16.5h-110q-22 0 -38 -16.5t-16 -39.5v-110q0 -23 16 -39t38 -16h110q23 0 39 16t16 39v110zM786 439
h-110q-45 0 -77 32.5t-32 78.5v110q0 46 32 78.5t77 32.5h110q45 0 77.5 -32.5t32.5 -78.5v-110q0 -46 -32.5 -78.5t-77.5 -32.5zM841 660q0 23 -16 39t-39 16h-110q-22 0 -38 -16t-16 -39v-110q0 -23 16 -39.5t38 -16.5h110q23 0 39 16.5t16 39.5v110zM348 -3h-110
q-45 0 -77.5 32.5t-32.5 78.5v110q0 46 32.5 78.5t77.5 32.5h110q45 0 77 -32.5t32 -78.5v-110q0 -46 -32 -78.5t-77 -32.5zM402 218q0 23 -16 39.5t-38 16.5h-110q-23 0 -39 -16.5t-16 -39.5v-110q0 -23 16 -39t39 -16h110q22 0 38 16t16 39v110zM348 439h-110
q-45 0 -77.5 32.5t-32.5 78.5v110q0 46 32.5 78.5t77.5 32.5h110q45 0 77 -32.5t32 -78.5v-110q0 -46 -32 -78.5t-77 -32.5zM402 660q0 23 -16 39t-38 16h-110q-23 0 -39 -16t-16 -39v-110q0 -23 16 -39.5t39 -16.5h110q22 0 38 16.5t16 39.5v110z" />
    <glyph glyph-name="uniE65E" unicode="&#xe65e;" 
d="M367 -25q-24 0 -41 17t-17 42t17 42t41.5 17t41.5 -17t17 -42t-17 -42t-42 -17zM772 -25q-25 0 -42 17t-17 42t17 42t41.5 17t41.5 -17t17 -42t-17 -42t-41 -17zM360 121q-32 0 -56.5 22t-27.5 54l-49 348l-28 163q-1 10 -9 17.5t-17 7.5h-37q-12 0 -21 9t-9 21.5t9 21
t21 8.5h37q32 0 56.5 -22t28.5 -54l28 -162l49 -350q1 -10 8.5 -17t16.5 -7h469q12 0 21 -9t9 -21.5t-9 -21t-21 -8.5h-469zM396 237q-12 0 -20.5 8t-9.5 20q-1 13 7 22t21 10l392 30q10 0 17.5 6.5t9.5 16.5l45 263q2 16 -7 26q-5 7 -13 7h-500q-12 0 -21 8.5t-9 21t9 21.5
t21 9h500q35 0 58 -27q27 -30 21 -75l-45 -262q-4 -32 -28.5 -54t-55.5 -22z" />
    <glyph glyph-name="uniE65F" unicode="&#xe65f;" 
d="M319 575q0 -80 56.5 -136.5t136.5 -56.5t136.5 56.5t56.5 136.5t-56.5 136.5t-136.5 56.5t-136.5 -56.5t-56.5 -136.5zM512 285q-115 0 -215.5 -50.5t-168.5 -139.5v-95h768v95q-68 89 -168.5 139.5t-215.5 50.5z" />
  </font>
</defs>
</svg>
